<svg class="main-svg" xmlns="http://www.w3.org/2000/svg" xmlns:xlink="http://www.w3.org/1999/xlink" width="900" height="700" style="" viewBox="0 0 900 700"><rect x="0" y="0" width="900" height="700" style="fill: rgb(255, 255, 255); fill-opacity: 1;"/><defs id="defs-48ff39"><g class="clips"><clipPath id="clip48ff39xyplot" class="plotclip"><rect width="333" height="195"/></clipPath><clipPath id="clip48ff39x2y2plot" class="plotclip"><rect width="332.99999999999994" height="195"/></clipPath><clipPath id="clip48ff39x3y3plot" class="plotclip"><rect width="333" height="195"/></clipPath><clipPath id="clip48ff39x4y4plot" class="plotclip"><rect width="332.99999999999994" height="195"/></clipPath><clipPath class="axesclip" id="clip48ff39x"><rect x="80" y="0" width="333" height="700"/></clipPath><clipPath class="axesclip" id="clip48ff39y"><rect x="0" y="100" width="900" height="195"/></clipPath><clipPath class="axesclip" id="clip48ff39xy"><rect x="80" y="100" width="333" height="195"/></clipPath><clipPath class="axesclip" id="clip48ff39y2"><rect x="0" y="100" width="900" height="195"/></clipPath><clipPath class="axesclip" id="clip48ff39xy2"><rect x="80" y="100" width="333" height="195"/></clipPath><clipPath class="axesclip" id="clip48ff39y3"><rect x="0" y="425" width="900" height="195"/></clipPath><clipPath class="axesclip" id="clip48ff39xy3"><rect x="80" y="425" width="333" height="195"/></clipPath><clipPath class="axesclip" id="clip48ff39y4"><rect x="0" y="425" width="900" height="195"/></clipPath><clipPath class="axesclip" id="clip48ff39xy4"><rect x="80" y="425" width="333" height="195"/></clipPath><clipPath class="axesclip" id="clip48ff39x2"><rect x="487.00000000000006" y="0" width="332.99999999999994" height="700"/></clipPath><clipPath class="axesclip" id="clip48ff39x2y"><rect x="487.00000000000006" y="100" width="332.99999999999994" height="195"/></clipPath><clipPath class="axesclip" id="clip48ff39x2y2"><rect x="487.00000000000006" y="100" width="332.99999999999994" height="195"/></clipPath><clipPath class="axesclip" id="clip48ff39x2y3"><rect x="487.00000000000006" y="425" width="332.99999999999994" height="195"/></clipPath><clipPath class="axesclip" id="clip48ff39x2y4"><rect x="487.00000000000006" y="425" width="332.99999999999994" height="195"/></clipPath><clipPath class="axesclip" id="clip48ff39x3"><rect x="80" y="0" width="333" height="700"/></clipPath><clipPath class="axesclip" id="clip48ff39x3y"><rect x="80" y="100" width="333" height="195"/></clipPath><clipPath class="axesclip" id="clip48ff39x3y2"><rect x="80" y="100" width="333" height="195"/></clipPath><clipPath class="axesclip" id="clip48ff39x3y3"><rect x="80" y="425" width="333" height="195"/></clipPath><clipPath class="axesclip" id="clip48ff39x3y4"><rect x="80" y="425" width="333" height="195"/></clipPath><clipPath class="axesclip" id="clip48ff39x4"><rect x="487.00000000000006" y="0" width="332.99999999999994" height="700"/></clipPath><clipPath class="axesclip" id="clip48ff39x4y"><rect x="487.00000000000006" y="100" width="332.99999999999994" height="195"/></clipPath><clipPath class="axesclip" id="clip48ff39x4y2"><rect x="487.00000000000006" y="100" width="332.99999999999994" height="195"/></clipPath><clipPath class="axesclip" id="clip48ff39x4y3"><rect x="487.00000000000006" y="425" width="332.99999999999994" height="195"/></clipPath><clipPath class="axesclip" id="clip48ff39x4y4"><rect x="487.00000000000006" y="425" width="332.99999999999994" height="195"/></clipPath></g><g class="gradients"/><g class="patterns"/></defs><g class="bglayer"/><g class="layer-below"><g class="imagelayer"/><g class="shapelayer"/></g><g class="cartesianlayer"><g class="subplot xy"><g class="layer-subplot"><g class="shapelayer"/><g class="imagelayer"/></g><g class="minor-gridlayer"><g class="x"/><g class="y"/></g><g class="gridlayer"><g class="x"><path class="xgrid crisp" transform="translate(143.91,0)" d="M0,100v195" style="stroke: rgb(238, 238, 238); stroke-opacity: 1; stroke-width: 1px;"/><path class="xgrid crisp" transform="translate(211.18,0)" d="M0,100v195" style="stroke: rgb(238, 238, 238); stroke-opacity: 1; stroke-width: 1px;"/><path class="xgrid crisp" transform="translate(278.45,0)" d="M0,100v195" style="stroke: rgb(238, 238, 238); stroke-opacity: 1; stroke-width: 1px;"/><path class="xgrid crisp" transform="translate(345.73,0)" d="M0,100v195" style="stroke: rgb(238, 238, 238); stroke-opacity: 1; stroke-width: 1px;"/></g><g class="y"><path class="ygrid crisp" transform="translate(0,247.12)" d="M80,0h333" style="stroke: rgb(238, 238, 238); stroke-opacity: 1; stroke-width: 1px;"/><path class="ygrid crisp" transform="translate(0,187.73000000000002)" d="M80,0h333" style="stroke: rgb(238, 238, 238); stroke-opacity: 1; stroke-width: 1px;"/><path class="ygrid crisp" transform="translate(0,128.32999999999998)" d="M80,0h333" style="stroke: rgb(238, 238, 238); stroke-opacity: 1; stroke-width: 1px;"/></g></g><g class="zerolinelayer"/><path class="xlines-below"/><path class="ylines-below"/><g class="overlines-below"/><g class="xaxislayer-below"/><g class="yaxislayer-below"/><g class="overaxes-below"/><g class="plot" transform="translate(80,100)" clip-path="url(#clip48ff39xyplot)"><g class="scatterlayer mlayer"><g class="trace scatter trace1011e1" style="stroke-miterlimit: 2; opacity: 1;"><g class="fills"/><g class="errorbars"/><g class="lines"><path class="js-line" d="M0,41.58L3.36,25.95L6.73,49.57L10.09,46.99L13.45,45.87L16.82,171.75L20.18,161.06L23.55,160.29L26.91,174.1L30.27,163.38L33.64,185.25L37,156.96L40.36,161.77L43.73,161.9L47.09,156.54L53.82,167.33L57.18,151.23L60.55,170.78L63.91,165.62L67.27,154.28L70.64,168.1L74,171.65L77.36,160.76L80.73,146.31L84.09,150.79L87.45,158.2L90.82,158.36L94.18,150.05L97.55,159.19L100.91,150.97L104.27,176.21L107.64,137.12L111,162.71L114.36,148.35L117.73,147.19L121.09,163.05L124.45,153.12L127.82,155.19L131.18,164.33L134.55,150.23L137.91,151.92L141.27,157.58L144.64,159.76L148,156.12L151.36,44.97L154.73,41.01L158.09,29.23L161.45,44.67L164.82,28.33L168.18,30.84L171.55,47.38L174.91,26.86L178.27,34.94L181.64,44.18L185,48.7L188.36,42.89L191.73,29.74L195.09,36.97L198.45,28.92L201.82,29.48L205.18,47.09L208.55,36.9L211.91,30.21L215.27,30.69L218.64,29.86L222,28.03L225.36,38.69L228.73,44.52L232.09,32.75L235.45,35.82L238.82,41.05L242.18,40.65L245.55,35.39L248.91,39.95L252.27,37.63L255.64,52.08L259,36.75L262.36,15.09L265.73,53.08L269.09,36.07L272.45,37L275.82,26.79L279.18,47.77L282.55,68.07L285.91,21.23L289.27,28.03L292.64,38.67L296,58.65L299.36,47.46L306.09,27.07L309.45,36.56L312.82,47.1L316.18,9.75L319.55,42.07L322.91,41.58L326.27,33.59L329.64,28.02L333,25.09" style="vector-effect: non-scaling-stroke; fill: none; stroke: rgb(132, 207, 193); stroke-opacity: 1; stroke-width: 2px; opacity: 1;"/></g><g class="points"/><g class="text"/></g></g></g><g class="overplot"/><path class="xlines-above crisp" d="M0,0" style="fill: none;"/><path class="ylines-above crisp" d="M0,0" style="fill: none;"/><g class="overlines-above"/><g class="xaxislayer-above"><g class="xtick"><text text-anchor="middle" x="0" y="308" transform="translate(143.91,0)" style="font-family: 'Franklin Gothic'; font-size: 12px; fill: rgb(68, 68, 68); fill-opacity: 1; white-space: pre; opacity: 1;">20</text></g><g class="xtick"><text text-anchor="middle" x="0" y="308" style="font-family: 'Franklin Gothic'; font-size: 12px; fill: rgb(68, 68, 68); fill-opacity: 1; white-space: pre; opacity: 1;" transform="translate(211.18,0)">40</text></g><g class="xtick"><text text-anchor="middle" x="0" y="308" style="font-family: 'Franklin Gothic'; font-size: 12px; fill: rgb(68, 68, 68); fill-opacity: 1; white-space: pre; opacity: 1;" transform="translate(278.45,0)">60</text></g><g class="xtick"><text text-anchor="middle" x="0" y="308" style="font-family: 'Franklin Gothic'; font-size: 12px; fill: rgb(68, 68, 68); fill-opacity: 1; white-space: pre; opacity: 1;" transform="translate(345.73,0)">80</text></g><g class="xtick"><text text-anchor="middle" x="0" y="308" style="font-family: 'Franklin Gothic'; font-size: 12px; fill: rgb(68, 68, 68); fill-opacity: 1; white-space: pre; opacity: 1;" transform="translate(413,0)">100</text></g></g><g class="yaxislayer-above"><g class="ytick"><text text-anchor="end" x="79" y="4.199999999999999" transform="translate(0,247.12)" style="font-family: 'Franklin Gothic'; font-size: 12px; fill: rgb(68, 68, 68); fill-opacity: 1; white-space: pre; opacity: 1;">0.3</text></g><g class="ytick"><text text-anchor="end" x="79" y="4.199999999999999" style="font-family: 'Franklin Gothic'; font-size: 12px; fill: rgb(68, 68, 68); fill-opacity: 1; white-space: pre; opacity: 1;" transform="translate(0,187.73000000000002)">0.4</text></g><g class="ytick"><text text-anchor="end" x="79" y="4.199999999999999" style="font-family: 'Franklin Gothic'; font-size: 12px; fill: rgb(68, 68, 68); fill-opacity: 1; white-space: pre; opacity: 1;" transform="translate(0,128.32999999999998)">0.5</text></g></g><g class="overaxes-above"/></g><g class="subplot x2y2"><g class="layer-subplot"><g class="shapelayer"/><g class="imagelayer"/></g><g class="minor-gridlayer"><g class="x2"/><g class="y2"/></g><g class="gridlayer"><g class="x2"><path class="x2grid crisp" transform="translate(507.37000000000006,0)" d="M0,100v195" style="stroke: rgb(238, 238, 238); stroke-opacity: 1; stroke-width: 1px;"/><path class="x2grid crisp" transform="translate(576.98,0)" d="M0,100v195" style="stroke: rgb(238, 238, 238); stroke-opacity: 1; stroke-width: 1px;"/><path class="x2grid crisp" transform="translate(646.59,0)" d="M0,100v195" style="stroke: rgb(238, 238, 238); stroke-opacity: 1; stroke-width: 1px;"/><path class="x2grid crisp" transform="translate(716.2,0)" d="M0,100v195" style="stroke: rgb(238, 238, 238); stroke-opacity: 1; stroke-width: 1px;"/><path class="x2grid crisp" transform="translate(785.8100000000001,0)" d="M0,100v195" style="stroke: rgb(238, 238, 238); stroke-opacity: 1; stroke-width: 1px;"/></g><g class="y2"><path class="y2grid crisp" transform="translate(0,272.77)" d="M487.00000000000006,0h332.99999999999994" style="stroke: rgb(238, 238, 238); stroke-opacity: 1; stroke-width: 1px;"/><path class="y2grid crisp" transform="translate(0,214.5)" d="M487.00000000000006,0h332.99999999999994" style="stroke: rgb(238, 238, 238); stroke-opacity: 1; stroke-width: 1px;"/><path class="y2grid crisp" transform="translate(0,156.23)" d="M487.00000000000006,0h332.99999999999994" style="stroke: rgb(238, 238, 238); stroke-opacity: 1; stroke-width: 1px;"/></g></g><g class="zerolinelayer"/><path class="xlines-below"/><path class="ylines-below"/><g class="overlines-below"/><g class="xaxislayer-below"/><g class="yaxislayer-below"/><g class="overaxes-below"/><g class="plot" transform="translate(487.00000000000006,100)" clip-path="url(#clip48ff39x2y2plot)"><g class="scatterlayer mlayer"><g class="trace scatter trace80ecb9" style="stroke-miterlimit: 2; opacity: 1;"><g class="fills"/><g class="errorbars"/><g class="lines"><path class="js-line" d="M0,78.79L1.12,41.86L2.25,56.23L3.39,32.4L4.48,59.78L5.59,60.97L6.71,66.66L7.83,69.27L8.92,41.87L10.04,66.96L11.13,48.3L12.24,50.96L13.38,44.85L14.49,52.88L15.58,52.74L16.72,53.66L17.85,47.15L20.09,68.97L21.14,51.42L22.28,58.02L23.42,43.26L24.51,76.32L25.65,27.52L26.73,77.84L27.9,46.24L30.06,60.6L31.19,48.99L32.3,71.28L33.43,71.32L34.53,68.47L35.66,52.32L36.74,77.55L37.86,18.6L40.11,61.22L41.23,30.41L42.35,67.02L43.46,59.46L44.57,57.14L45.7,59.19L47.93,53.54L49.02,71.1L50.13,39.4L51.24,50.99L52.37,9.75L53.48,44.83L54.61,38.98L55.71,47.29L56.8,52.78L57.97,75.53L60.19,38.88L61.27,61.83L62.37,63.51L63.49,62.04L64.63,74.86L65.74,45.5L66.82,58.88L67.96,38.27L69.03,48.96L70.17,31.88L73.49,57.12L74.65,47.9L76.82,42.7L77.95,47.55L79.09,31.09L80.19,63.7L81.31,61.66L82.42,70.18L83.54,63.33L84.61,70.44L85.77,55.32L86.88,52.56L87.98,57.13L89.09,52.65L90.24,67.88L91.36,41.8L92.45,93.25L93.57,73.14L94.7,67.15L95.8,78.5L96.95,69.84L98.04,54.23L100.24,102.52L101.37,93.09L102.49,88.97L103.57,45.94L104.67,74.17L105.79,71.37L106.94,79.69L108.03,48.63L111.38,78.32L112.5,68.2L113.62,97.35L114.74,81.1L115.84,75.65L116.94,57.78L118.06,127.01L119.18,145.62L120.3,125.6L121.43,138.78L122.54,139.97L123.63,129.28L124.78,128.85L125.87,141.82L126.98,163.67L128.09,131.04L129.2,149.47L130.35,129.97L131.42,153.96L132.56,110.12L133.65,154.48L134.79,133.7L135.86,124.96L137.01,126.56L138.09,135.12L139.23,151.65L140.35,172.42L141.46,164.92L142.57,154.46L143.68,160.4L144.81,185.25L145.91,164.81L147.03,143.3L148.12,150.59L149.23,171.34L150.36,138.69L151.46,123.74L152.6,120.56L153.69,134.74L154.81,119.18L155.93,155.27L157.08,129.7L158.16,155.6L159.27,117.12L160.41,143.89L161.48,139.48L162.58,153.35L163.72,126.62L164.88,133.09L165.98,161.42L167.07,161.5L168.19,166.03L170.41,132.81L171.54,149.14L172.65,149.85L173.73,147.84L176,127.76L177.09,156.67L178.2,162.57L179.3,142.9L180.46,153.95L181.58,146.54L182.64,117.78L183.79,139.73L184.89,164.4L186,129.77L187.13,134.49L188.21,119.73L189.33,151.72L190.47,132.9L191.59,121.85L192.69,163.57L193.81,135.85L194.87,153.35L197.15,155.76L198.27,133.64L200.51,161.27L201.61,135.07L203.8,164.78L204.94,151.13L206.07,154.59L207.17,143.97L208.29,132.54L209.35,138.15L211.6,123.33L212.73,127.19L213.87,117L214.93,120.87L216.11,158.96L217.2,140.66L218.29,138.07L219.42,125.86L220.55,138L221.62,117.33L222.77,157.38L223.88,146.59L224.95,123.18L226.14,167.8L228.33,126.26L229.46,142.31L230.55,139.36L231.65,151.69L232.8,142.03L233.89,153.35L235.01,162.74L236.12,148.82L237.26,125.52L238.37,166.86L239.47,120.78L240.56,161.47L241.66,144.9L242.8,141.71L243.91,110.62L245.06,156.79L246.17,169.39L247.29,161.4L248.41,131.77L249.51,148.57L250.6,126.44L251.73,149.69L252.82,159.52L253.94,145.46L255.04,118.53L256.2,135.69L257.27,134.95L258.38,152.3L259.53,157.09L260.62,129.07L261.73,162.18L262.86,123.21L263.98,142.23L265.08,146.29L266.22,182.7L267.32,138.91L268.41,164.02L269.54,142.31L270.65,125.26L271.77,153.35L273.98,135.69L275.11,140.76L277.33,125.92L278.44,159.73L279.6,143.72L280.67,115.63L282.89,137.16L283.99,140.36L285.14,146.41L286.24,147.45L287.36,138.75L288.5,157.31L290.73,134.35L291.79,158.64L294.01,144.47L295.13,136.97L296.26,136.4L297.36,143.72L298.47,143.55L299.61,153.96L300.75,110.18L301.82,140.29L304.04,146.89L305.17,152.75L306.3,151.63L307.4,144.01L308.55,151.22L309.63,127.96L310.75,157.46L311.84,154.61L312.96,151.63L314.1,119.73L316.32,161.93L317.46,136.97L318.55,127.9L319.66,145.12L320.75,141.03L321.89,145.88L322.98,150.12L324.1,161.51L326.31,134.35L327.47,133.32L328.54,106.4L329.66,129.47L331.93,159.18L333,161.62" style="vector-effect: non-scaling-stroke; fill: none; stroke: rgb(80, 180, 210); stroke-opacity: 1; stroke-width: 2px; opacity: 1;"/></g><g class="points"/><g class="text"/></g></g></g><g class="overplot"/><path class="xlines-above crisp" d="M0,0" style="fill: none;"/><path class="ylines-above crisp" d="M0,0" style="fill: none;"/><g class="overlines-above"/><g class="xaxislayer-above"><g class="x2tick"><text text-anchor="middle" x="0" y="308" transform="translate(507.37000000000006,0)" style="font-family: 'Franklin Gothic'; font-size: 12px; fill: rgb(68, 68, 68); fill-opacity: 1; white-space: pre; opacity: 1;">0</text></g><g class="x2tick"><text text-anchor="middle" x="0" y="308" style="font-family: 'Franklin Gothic'; font-size: 12px; fill: rgb(68, 68, 68); fill-opacity: 1; white-space: pre; opacity: 1;" transform="translate(576.98,0)">1000</text></g><g class="x2tick"><text text-anchor="middle" x="0" y="308" style="font-family: 'Franklin Gothic'; font-size: 12px; fill: rgb(68, 68, 68); fill-opacity: 1; white-space: pre; opacity: 1;" transform="translate(646.59,0)">2000</text></g><g class="x2tick"><text text-anchor="middle" x="0" y="308" style="font-family: 'Franklin Gothic'; font-size: 12px; fill: rgb(68, 68, 68); fill-opacity: 1; white-space: pre; opacity: 1;" transform="translate(716.2,0)">3000</text></g><g class="x2tick"><text text-anchor="middle" x="0" y="308" style="font-family: 'Franklin Gothic'; font-size: 12px; fill: rgb(68, 68, 68); fill-opacity: 1; white-space: pre; opacity: 1;" transform="translate(785.8100000000001,0)">4000</text></g></g><g class="yaxislayer-above"><g class="y2tick"><text text-anchor="end" x="486.00000000000006" y="4.199999999999999" transform="translate(0,272.77)" style="font-family: 'Franklin Gothic'; font-size: 12px; fill: rgb(68, 68, 68); fill-opacity: 1; white-space: pre; opacity: 1;">0.3</text></g><g class="y2tick"><text text-anchor="end" x="486.00000000000006" y="4.199999999999999" style="font-family: 'Franklin Gothic'; font-size: 12px; fill: rgb(68, 68, 68); fill-opacity: 1; white-space: pre; opacity: 1;" transform="translate(0,214.5)">0.4</text></g><g class="y2tick"><text text-anchor="end" x="486.00000000000006" y="4.199999999999999" style="font-family: 'Franklin Gothic'; font-size: 12px; fill: rgb(68, 68, 68); fill-opacity: 1; white-space: pre; opacity: 1;" transform="translate(0,156.23)">0.5</text></g></g><g class="overaxes-above"/></g><g class="subplot x3y3"><g class="layer-subplot"><g class="shapelayer"/><g class="imagelayer"/></g><g class="minor-gridlayer"><g class="x3"/><g class="y3"/></g><g class="gridlayer"><g class="x3"><path class="x3grid crisp" transform="translate(213.62,0)" d="M0,425v195" style="stroke: rgb(238, 238, 238); stroke-opacity: 1; stroke-width: 1px;"/><path class="x3grid crisp" transform="translate(347.28,0)" d="M0,425v195" style="stroke: rgb(238, 238, 238); stroke-opacity: 1; stroke-width: 1px;"/></g><g class="y3"><path class="y3grid crisp" transform="translate(0,575.15)" d="M80,0h333" style="stroke: rgb(238, 238, 238); stroke-opacity: 1; stroke-width: 1px;"/><path class="y3grid crisp" transform="translate(0,540.05)" d="M80,0h333" style="stroke: rgb(238, 238, 238); stroke-opacity: 1; stroke-width: 1px;"/><path class="y3grid crisp" transform="translate(0,504.95)" d="M80,0h333" style="stroke: rgb(238, 238, 238); stroke-opacity: 1; stroke-width: 1px;"/><path class="y3grid crisp" transform="translate(0,469.85)" d="M80,0h333" style="stroke: rgb(238, 238, 238); stroke-opacity: 1; stroke-width: 1px;"/><path class="y3grid crisp" transform="translate(0,434.75)" d="M80,0h333" style="stroke: rgb(238, 238, 238); stroke-opacity: 1; stroke-width: 1px;"/></g></g><g class="zerolinelayer"><path class="y3zl zl crisp" transform="translate(0,610.25)" d="M80,0h333" style="stroke: rgb(68, 68, 68); stroke-opacity: 1; stroke-width: 1px;"/></g><path class="xlines-below"/><path class="ylines-below"/><g class="overlines-below"/><g class="xaxislayer-below"/><g class="yaxislayer-below"/><g class="overaxes-below"/><g class="plot" transform="translate(80,425)" clip-path="url(#clip48ff39x3y3plot)"><g class="scatterlayer mlayer"><g class="trace scatter tracec8b274" style="stroke-miterlimit: 2; opacity: 1;"><g class="fills"/><g class="errorbars"/><g class="lines"><path class="js-line" d="M0,97.5L1.1,185.25L2.89,9.75L4.01,185.25L5.91,9.75L6.97,97.5L10.26,97.5L15.22,97.5L16.49,185.25L21.88,185.25L22.42,126.75L25.12,9.75L26.11,9.75L27.14,126.75L28.35,9.75L29.58,160.18L30.51,84.96L31.5,119.44L32.97,126.75L35.02,97.5L36.15,138.45L37.12,160.18L38.47,87.75L39.44,158.25L40.43,135.11L41.51,103.35L42.72,117.75L43.89,150.15L44.95,115.05L46.15,97.5L47.29,97.5L49.53,164.6L50.51,131.25L51.55,130.78L52.69,102.98L53.75,83.35L54.99,89.98L55.95,125.32L57.21,103.77L58.28,141.38L59.42,97.5L61.62,121.88L62.7,105.48L63.85,92.88L64.98,117.93L66.07,106.99L67.26,106.15L68.32,114.62L69.41,114.62L70.48,123.05L71.61,112.86L72.76,124.73L73.85,108.58L75,118.64L76.06,110.89L77.26,129.52L78.3,127.23L79.41,118.56L80.53,122.94L81.67,124.73L82.75,112.86L83.9,123.31L84.98,114.08L87.21,127.89L88.3,117.24L89.46,119.05L90.53,117.64L91.66,130.31L92.77,124.24L93.89,121.1L94.98,125.2L96.11,117.65L97.22,121.52L98.33,116.11L99.44,119.83L100.55,119.93L101.63,123.75L102.75,121.39L103.89,110.04L105.02,117.22L106.07,115.96L108.32,122.26L109.44,117.62L111.67,114.77L112.78,118.64L113.87,112.8L114.99,114.93L117.2,121.13L118.34,116.07L119.44,117.18L120.55,110.25L121.66,119.74L122.77,119.17L123.88,114.34L125,114.57L127.21,116.8L128.36,113.05L129.45,114.12L130.55,119.02L131.7,119.1L132.79,116.9L133.91,115.01L135,114.65L136.13,112.32L137.22,114.44L138.35,117.23L139.45,110.8L140.58,116.92L141.68,117.51L142.78,120.06L143.9,114.05L146.13,121L147.22,116.91L148.36,117.81L149.47,117.54L150.59,111.1L151.7,113.74L152.79,119.88L153.9,119.32L155,115.29L156.12,120.73L157.24,119.12L158.36,112.15L160.56,115.49L161.67,110.6L162.81,115.8L163.91,111.9L165.01,110.36L166.15,111.69L167.25,110.89L168.35,113.71L169.45,111.27L170.58,112.62L171.69,118.99L172.8,109.62L175.02,114.4L176.14,111.98L177.25,111.99L178.37,110.15L179.47,109.28L180.59,113.88L181.69,107.65L182.81,113L185.02,110.33L186.14,112.4L187.25,110.15L188.36,113.07L189.47,107.82L190.59,111.39L191.7,118L192.8,112.11L193.92,116.3L195.03,109.51L196.16,113.58L197.26,112.56L198.39,115L199.46,114.14L200.58,110.28L201.69,112.65L203.94,117.89L205.03,111.68L206.14,114.42L207.28,109.66L209.47,114.72L210.59,106.45L211.71,115.6L212.83,112.64L213.93,114.9L215.06,112.09L216.15,120.42L217.26,107.71L218.38,114.34L219.47,108.53L221.72,107.7L222.83,110.8L223.91,108.33L225.06,115.54L226.17,114.16L227.26,120.06L228.34,120.67L229.49,111.75L230.59,109.38L231.73,117.75L232.84,122.38L233.96,103.01L235.02,115.43L236.16,111.17L237.25,113.75L238.4,107.25L240.57,121.88L241.69,111.3L242.84,124.6L243.95,115.05L245.07,120.81L246.12,104.97L247.31,112.13L248.37,101.6L249.48,116.17L250.56,112.54L251.74,87.75L252.84,103.35L253.99,106.4L255.05,120.25L256.15,91.65L257.29,103.68L258.45,126.75L259.54,113.75L260.68,95.63L261.75,127.94L262.9,119.95L264.01,88.9L265.04,125.21L266.26,126.75L267.15,112.99L268.47,117.31L269.58,119.44L270.53,116.58L271.72,138L272.81,94.25L273.93,120.59L275.17,117.75L276.17,161.85L277.21,104.25L278.48,102.66L279.56,108.47L280.63,111.36L281.74,156L282.9,87.75L283.98,89.52L284.89,97.5L286.06,115.05L287.21,119.44L288.32,153.34L289.54,150.15L290.86,160.18L292.76,79.95L294.02,185.25L294.93,53.63L296.36,53.63L297.3,141.38L298.36,97.5L299.54,97.5L300.63,126.75L301.52,185.25L303.3,9.75L303.88,9.75L305.18,185.25L307.54,9.75L309.4,185.25L312.45,185.25L314.99,97.5L316.43,185.25L317.34,185.25L319.56,9.75L320.81,185.25L328.76,185.25L333,97.5" style="vector-effect: non-scaling-stroke; fill: none; stroke: rgb(39, 136, 188); stroke-opacity: 1; stroke-width: 2px; opacity: 1;"/></g><g class="points"/><g class="text"/></g></g></g><g class="overplot"/><path class="xlines-above crisp" d="M0,0" style="fill: none;"/><path class="ylines-above crisp" d="M0,0" style="fill: none;"/><g class="overlines-above"/><g class="xaxislayer-above"><g class="x3tick"><text text-anchor="middle" x="0" y="633" transform="translate(213.62,0)" style="font-family: 'Franklin Gothic'; font-size: 12px; fill: rgb(68, 68, 68); fill-opacity: 1; white-space: pre; opacity: 1;">50</text></g><g class="x3tick"><text text-anchor="middle" x="0" y="633" style="font-family: 'Franklin Gothic'; font-size: 12px; fill: rgb(68, 68, 68); fill-opacity: 1; white-space: pre; opacity: 1;" transform="translate(347.28,0)">100</text></g></g><g class="yaxislayer-above"><g class="y3tick"><text text-anchor="end" x="79" y="4.199999999999999" transform="translate(0,610.25)" style="font-family: 'Franklin Gothic'; font-size: 12px; fill: rgb(68, 68, 68); fill-opacity: 1; white-space: pre; opacity: 1;">0</text></g><g class="y3tick"><text text-anchor="end" x="79" y="4.199999999999999" style="font-family: 'Franklin Gothic'; font-size: 12px; fill: rgb(68, 68, 68); fill-opacity: 1; white-space: pre; opacity: 1;" transform="translate(0,575.15)">0.2</text></g><g class="y3tick"><text text-anchor="end" x="79" y="4.199999999999999" style="font-family: 'Franklin Gothic'; font-size: 12px; fill: rgb(68, 68, 68); fill-opacity: 1; white-space: pre; opacity: 1;" transform="translate(0,540.05)">0.4</text></g><g class="y3tick"><text text-anchor="end" x="79" y="4.199999999999999" style="font-family: 'Franklin Gothic'; font-size: 12px; fill: rgb(68, 68, 68); fill-opacity: 1; white-space: pre; opacity: 1;" transform="translate(0,504.95)">0.6</text></g><g class="y3tick"><text text-anchor="end" x="79" y="4.199999999999999" style="font-family: 'Franklin Gothic'; font-size: 12px; fill: rgb(68, 68, 68); fill-opacity: 1; white-space: pre; opacity: 1;" transform="translate(0,469.85)">0.8</text></g><g class="y3tick"><text text-anchor="end" x="79" y="4.199999999999999" style="font-family: 'Franklin Gothic'; font-size: 12px; fill: rgb(68, 68, 68); fill-opacity: 1; white-space: pre; opacity: 1;" transform="translate(0,434.75)">1</text></g></g><g class="overaxes-above"/></g><g class="subplot x4y4"><g class="layer-subplot"><g class="shapelayer"/><g class="imagelayer"/></g><g class="minor-gridlayer"><g class="x4"/><g class="y4"/></g><g class="gridlayer"><g class="x4"><path class="x4grid crisp" transform="translate(569.94,0)" d="M0,425v195" style="stroke: rgb(238, 238, 238); stroke-opacity: 1; stroke-width: 1px;"/><path class="x4grid crisp" transform="translate(653.5200000000001,0)" d="M0,425v195" style="stroke: rgb(238, 238, 238); stroke-opacity: 1; stroke-width: 1px;"/><path class="x4grid crisp" transform="translate(737.1,0)" d="M0,425v195" style="stroke: rgb(238, 238, 238); stroke-opacity: 1; stroke-width: 1px;"/></g><g class="y4"><path class="y4grid crisp" transform="translate(0,577.5699999999999)" d="M487.00000000000006,0h332.99999999999994" style="stroke: rgb(238, 238, 238); stroke-opacity: 1; stroke-width: 1px;"/><path class="y4grid crisp" transform="translate(0,527.58)" d="M487.00000000000006,0h332.99999999999994" style="stroke: rgb(238, 238, 238); stroke-opacity: 1; stroke-width: 1px;"/><path class="y4grid crisp" transform="translate(0,477.6)" d="M487.00000000000006,0h332.99999999999994" style="stroke: rgb(238, 238, 238); stroke-opacity: 1; stroke-width: 1px;"/><path class="y4grid crisp" transform="translate(0,427.61)" d="M487.00000000000006,0h332.99999999999994" style="stroke: rgb(238, 238, 238); stroke-opacity: 1; stroke-width: 1px;"/></g></g><g class="zerolinelayer"/><path class="xlines-below"/><path class="ylines-below"/><g class="overlines-below"/><g class="xaxislayer-below"/><g class="yaxislayer-below"/><g class="overaxes-below"/><g class="plot" transform="translate(487.00000000000006,425)" clip-path="url(#clip48ff39x4y4plot)"><g class="scatterlayer mlayer"><g class="trace scatter trace6a031c" style="stroke-miterlimit: 2; opacity: 1;"><g class="fills"/><g class="errorbars"/><g class="lines"><path class="js-line" d="M0,125.8L1.18,75.34L2.28,112.49L3.38,97.48L4.56,94.76L5.62,122.83L6.7,117.52L7.9,103.69L8.93,62.44L10.04,103.75L11.24,93.86L12.3,81.72L13.39,145.81L14.58,44.02L15.68,140.25L17.91,56.85L19.01,111.27L20.09,63.37L21.24,61.42L23.41,112.19L24.61,100.21L25.69,135.71L26.79,113.85L27.93,103.89L29,102.58L30.13,113.85L31.27,114.67L32.35,138.05L33.46,132.75L35.73,103.16L36.77,114.89L37.96,112.64L39.06,80.77L40.12,82.34L41.33,61.34L43.5,93.62L44.64,70.23L45.75,133.98L46.8,121.34L48.03,75.53L49.08,165.53L50.2,133.39L51.35,127.57L52.42,125.41L53.54,90.44L54.68,106.63L55.74,168.15L56.84,97.96L57.95,83.76L60.19,116.41L61.31,120.22L62.37,66.92L63.55,75.69L64.6,124.11L65.73,81.53L66.88,101.47L67.99,98.67L69.08,131.23L70.25,85.44L72.41,118.89L73.58,121.89L75.75,79.16L76.88,125.95L78,157.86L79.1,111.81L80.29,70.49L81.35,121.78L82.45,72.86L83.62,123.69L84.69,163.08L85.8,99.55L86.98,99.84L88.05,67.5L90.3,132.2L91.37,97.09L92.49,126.85L93.65,70.84L95.81,117.54L96.97,76.71L99.15,120.55L100.35,133.56L101.42,72.03L102.48,67.43L103.67,71.22L104.74,62.59L106.99,136.52L108.09,27.69L109.18,106.86L110.37,79.64L111.44,78.35L112.52,145.88L114.7,54.02L115.84,94.25L116.97,74.02L118.02,74.02L119.23,130.92L120.29,83.98L121.37,88.89L122.55,143.75L123.66,122.14L124.7,79.4L126.99,105.86L128.04,57.52L129.24,124.92L130.33,67.67L131.43,99.12L132.59,42.15L133.64,130.73L134.77,138.67L135.93,113.2L137.01,45.28L138.08,84.3L139.28,94.76L140.36,94.22L141.44,110.36L142.61,98.63L143.7,99.3L144.78,134.15L145.96,107.29L147.09,104.49L148.12,79L149.31,112.4L150.37,175.35L151.49,81.84L152.67,110.8L153.75,95.92L154.79,121.62L157.06,80.23L158.16,185.25L159.35,108.17L160.4,99.8L161.53,126.51L162.67,98.63L163.78,143.84L164.9,77.12L167.11,122.38L168.18,85.22L169.26,155.2L170.37,105.4L171.51,84.55L172.62,105.23L175.95,58.48L177.08,109.35L178.19,146.77L179.33,112.33L180.4,59.56L181.57,113.69L182.65,84.68L183.73,101.53L184.92,128.66L186,103.24L187.07,108.38L188.26,135.05L189.32,35.93L190.44,89.29L191.58,121.88L192.69,99.64L193.72,118.6L194.96,65.93L196.02,103.26L197.09,65.26L198.3,55.15L199.33,64.87L200.46,143.05L201.62,115.04L202.73,79.97L203.8,79.27L204.95,92.33L206.06,119.24L207.14,125.38L208.32,56.81L209.38,50.98L210.48,66.08L211.67,106.51L212.74,80.71L215.02,113.01L216.09,91.05L217.2,23.24L218.31,108.56L220.5,45.7L221.68,155.39L222.77,97.98L223.85,120.81L224.92,82.45L226.06,113.85L228.26,76.72L229.36,103.16L230.54,150.5L231.62,156.93L232.71,102.58L233.85,132.31L234.98,118.47L236.04,129.79L237.21,39.11L238.31,99.8L239.41,97.25L240.6,108.08L241.66,50.39L242.76,122.87L243.9,110.17L244.98,144.9L246.08,87.11L247.25,86.89L248.34,77.42L249.44,104.21L250.6,150.13L251.68,87.04L252.77,74.02L253.96,94.48L256.12,106.51L257.29,86.15L258.37,50.87L259.44,64.72L260.64,116.5L261.7,124.88L262.8,126.26L263.96,85.22L265.05,65.29L266.17,96.08L267.33,123.06L268.41,115.28L269.48,110.65L270.67,70.46L272.84,96.95L274.04,98.51L275.11,91.43L276.17,126.07L277.37,76.03L278.42,136.88L279.53,108.55L280.61,138.64L281.68,86.16L282.87,79.29L283.96,84.53L285.05,58.48L286.21,54.76L287.29,61.42L289.52,115.66L290.65,102.58L292.89,117.75L293.99,119.19L295.05,102.58L296.2,121.1L297.35,81.34L298.43,119.86L299.59,88.02L300.64,91.81L301.76,126.2L302.92,104.25L303.99,56.65L305.07,48.57L306.25,157.16L307.35,117.48L308.44,112.93L309.62,185.01L310.69,9.75L311.77,64.91L312.97,106.69L314.05,115.91L315.14,136.37L316.26,109.62L317.38,86.42L318.47,111.67L319.64,70.01L320.75,68.77L321.79,103.74L322.98,49.56L324.04,127.16L325.13,64.2L326.31,115.14L327.43,85.92L328.48,92.7L329.65,121.48L330.74,126.69L331.85,105.93L333,113.85" style="vector-effect: non-scaling-stroke; fill: none; stroke: rgb(8, 94, 161); stroke-opacity: 1; stroke-width: 2px; opacity: 1;"/></g><g class="points"/><g class="text"/></g></g></g><g class="overplot"/><path class="xlines-above crisp" d="M0,0" style="fill: none;"/><path class="ylines-above crisp" d="M0,0" style="fill: none;"/><g class="overlines-above"/><g class="xaxislayer-above"><g class="x4tick"><text text-anchor="middle" x="0" y="633" transform="translate(569.94,0)" style="font-family: 'Franklin Gothic'; font-size: 12px; fill: rgb(68, 68, 68); fill-opacity: 1; white-space: pre; opacity: 1;">500</text></g><g class="x4tick"><text text-anchor="middle" x="0" y="633" style="font-family: 'Franklin Gothic'; font-size: 12px; fill: rgb(68, 68, 68); fill-opacity: 1; white-space: pre; opacity: 1;" transform="translate(653.5200000000001,0)">1000</text></g><g class="x4tick"><text text-anchor="middle" x="0" y="633" style="font-family: 'Franklin Gothic'; font-size: 12px; fill: rgb(68, 68, 68); fill-opacity: 1; white-space: pre; opacity: 1;" transform="translate(737.1,0)">1500</text></g></g><g class="yaxislayer-above"><g class="y4tick"><text text-anchor="end" x="486.00000000000006" y="4.199999999999999" transform="translate(0,577.5699999999999)" style="font-family: 'Franklin Gothic'; font-size: 12px; fill: rgb(68, 68, 68); fill-opacity: 1; white-space: pre; opacity: 1;">0.35</text></g><g class="y4tick"><text text-anchor="end" x="486.00000000000006" y="4.199999999999999" style="font-family: 'Franklin Gothic'; font-size: 12px; fill: rgb(68, 68, 68); fill-opacity: 1; white-space: pre; opacity: 1;" transform="translate(0,527.58)">0.4</text></g><g class="y4tick"><text text-anchor="end" x="486.00000000000006" y="4.199999999999999" style="font-family: 'Franklin Gothic'; font-size: 12px; fill: rgb(68, 68, 68); fill-opacity: 1; white-space: pre; opacity: 1;" transform="translate(0,477.6)">0.45</text></g><g class="y4tick"><text text-anchor="end" x="486.00000000000006" y="4.199999999999999" style="font-family: 'Franklin Gothic'; font-size: 12px; fill: rgb(68, 68, 68); fill-opacity: 1; white-space: pre; opacity: 1;" transform="translate(0,427.61)">0.5</text></g></g><g class="overaxes-above"/></g></g><g class="polarlayer"/><g class="smithlayer"/><g class="ternarylayer"/><g class="geolayer"/><g class="funnelarealayer"/><g class="pielayer"/><g class="iciclelayer"/><g class="treemaplayer"/><g class="sunburstlayer"/><g class="glimages"/><defs id="topdefs-48ff39"><g class="clips"/></defs><g class="layer-above"><g class="imagelayer"/><g class="shapelayer"/></g><g class="infolayer"><g class="g-gtitle"><text class="gtitle" x="450" y="50" text-anchor="middle" dy="0em" style="font-family: 'Franklin Gothic'; font-size: 17px; fill: rgb(68, 68, 68); opacity: 1; font-weight: normal; white-space: pre;">Feature Relationships with Target</text></g><g class="g-xtitle"/><g class="g-x2title"/><g class="g-x3title"/><g class="g-x4title"/><g class="g-ytitle"><text class="ytitle" transform="rotate(-90,42,197.5)" x="42" y="197.5" text-anchor="middle" style="font-family: 'Franklin Gothic'; font-size: 14px; fill: rgb(68, 68, 68); opacity: 1; font-weight: normal; white-space: pre;">Target Probabilitiy</text></g><g class="g-y2title"/><g class="g-y3title"><text class="y3title" transform="rotate(-90,42,522.5)" x="42" y="522.5" text-anchor="middle" style="font-family: 'Franklin Gothic'; font-size: 14px; fill: rgb(68, 68, 68); opacity: 1; font-weight: normal; white-space: pre;">Target Probabilitiy</text></g><g class="g-y4title"/><g class="annotation" data-index="0" style="opacity: 1;"><g class="annotation-text-g" transform="rotate(0,246.5,88.5)"><g class="cursor-pointer" transform="translate(229,77)"><rect class="bg" x="0.5" y="0.5" width="34" height="22" style="stroke-width: 1px; stroke: rgb(0, 0, 0); stroke-opacity: 0; fill: rgb(0, 0, 0); fill-opacity: 0;"/><text class="annotation-text" text-anchor="middle" x="17.5" y="17" style="font-family: 'Franklin Gothic'; font-size: 16px; fill: rgb(68, 68, 68); fill-opacity: 1; white-space: pre;">Age</text></g></g></g><g class="annotation" data-index="1" style="opacity: 1;"><g class="annotation-text-g" transform="rotate(0,653.5,88.5)"><g class="cursor-pointer" transform="translate(615,77)"><rect class="bg" x="0.5" y="0.5" width="76" height="22" style="stroke-width: 1px; stroke: rgb(0, 0, 0); stroke-opacity: 0; fill: rgb(0, 0, 0); fill-opacity: 0;"/><text class="annotation-text" text-anchor="middle" x="38.5" y="17" style="font-family: 'Franklin Gothic'; font-size: 16px; fill: rgb(68, 68, 68); fill-opacity: 1; white-space: pre;">Elevation</text></g></g></g><g class="annotation" data-index="2" style="opacity: 1;"><g class="annotation-text-g" transform="rotate(0,246.5,413.5)"><g class="cursor-pointer" transform="translate(198,402)"><rect class="bg" x="0.5" y="0.5" width="96" height="22" style="stroke-width: 1px; stroke: rgb(0, 0, 0); stroke-opacity: 0; fill: rgb(0, 0, 0); fill-opacity: 0;"/><text class="annotation-text" text-anchor="middle" x="48.5" y="17" style="font-family: 'Franklin Gothic'; font-size: 16px; fill: rgb(68, 68, 68); fill-opacity: 1; white-space: pre;">Pole_Height</text></g></g></g><g class="annotation" data-index="3" style="opacity: 1;"><g class="annotation-text-g" transform="rotate(0,653.5,413.5)"><g class="cursor-pointer" transform="translate(581,402)"><rect class="bg" x="0.5" y="0.5" width="145" height="22" style="stroke-width: 1px; stroke: rgb(0, 0, 0); stroke-opacity: 0; fill: rgb(0, 0, 0); fill-opacity: 0;"/><text class="annotation-text" text-anchor="middle" x="73" y="17" style="font-family: 'Franklin Gothic'; font-size: 16px; fill: rgb(68, 68, 68); fill-opacity: 1; white-space: pre;">Measured_Length</text></g></g></g></g></svg>