<svg class="main-svg" xmlns="http://www.w3.org/2000/svg" xmlns:xlink="http://www.w3.org/1999/xlink" width="900" height="500" style="" viewBox="0 0 900 500"><rect x="0" y="0" width="900" height="500" style="fill: rgb(255, 255, 255); fill-opacity: 1;"/><defs id="defs-432b88"><g class="clips"><clipPath id="clip432b88xyplot" class="plotclip"><rect width="333" height="320"/></clipPath><clipPath id="clip432b88x2y2plot" class="plotclip"><rect width="332.99999999999994" height="320"/></clipPath><clipPath class="axesclip" id="clip432b88x"><rect x="80" y="0" width="333" height="500"/></clipPath><clipPath class="axesclip" id="clip432b88y"><rect x="0" y="100" width="900" height="320"/></clipPath><clipPath class="axesclip" id="clip432b88xy"><rect x="80" y="100" width="333" height="320"/></clipPath><clipPath class="axesclip" id="clip432b88y2"><rect x="0" y="100" width="900" height="320"/></clipPath><clipPath class="axesclip" id="clip432b88xy2"><rect x="80" y="100" width="333" height="320"/></clipPath><clipPath class="axesclip" id="clip432b88x2"><rect x="487.00000000000006" y="0" width="332.99999999999994" height="500"/></clipPath><clipPath class="axesclip" id="clip432b88x2y"><rect x="487.00000000000006" y="100" width="332.99999999999994" height="320"/></clipPath><clipPath class="axesclip" id="clip432b88x2y2"><rect x="487.00000000000006" y="100" width="332.99999999999994" height="320"/></clipPath></g><g class="gradients"/><g class="patterns"/></defs><g class="bglayer"/><g class="layer-below"><g class="imagelayer"/><g class="shapelayer"/></g><g class="cartesianlayer"><g class="subplot xy"><g class="layer-subplot"><g class="shapelayer"/><g class="imagelayer"/></g><g class="minor-gridlayer"><g class="x"/><g class="y"/></g><g class="gridlayer"><g class="x"><path class="xgrid crisp" transform="translate(146.6,0)" d="M0,100v320" style="stroke: rgb(238, 238, 238); stroke-opacity: 1; stroke-width: 1px;"/><path class="xgrid crisp" transform="translate(213.2,0)" d="M0,100v320" style="stroke: rgb(238, 238, 238); stroke-opacity: 1; stroke-width: 1px;"/><path class="xgrid crisp" transform="translate(279.8,0)" d="M0,100v320" style="stroke: rgb(238, 238, 238); stroke-opacity: 1; stroke-width: 1px;"/><path class="xgrid crisp" transform="translate(346.4,0)" d="M0,100v320" style="stroke: rgb(238, 238, 238); stroke-opacity: 1; stroke-width: 1px;"/></g><g class="y"><path class="ygrid crisp" transform="translate(0,346.4)" d="M80,0h333" style="stroke: rgb(238, 238, 238); stroke-opacity: 1; stroke-width: 1px;"/><path class="ygrid crisp" transform="translate(0,288.8)" d="M80,0h333" style="stroke: rgb(238, 238, 238); stroke-opacity: 1; stroke-width: 1px;"/><path class="ygrid crisp" transform="translate(0,231.2)" d="M80,0h333" style="stroke: rgb(238, 238, 238); stroke-opacity: 1; stroke-width: 1px;"/><path class="ygrid crisp" transform="translate(0,173.6)" d="M80,0h333" style="stroke: rgb(238, 238, 238); stroke-opacity: 1; stroke-width: 1px;"/><path class="ygrid crisp" transform="translate(0,116)" d="M80,0h333" style="stroke: rgb(238, 238, 238); stroke-opacity: 1; stroke-width: 1px;"/></g></g><g class="zerolinelayer"><path class="xzl zl crisp" transform="translate(80,0)" d="M0,100v320" style="stroke: rgb(68, 68, 68); stroke-opacity: 1; stroke-width: 1px;"/><path class="yzl zl crisp" transform="translate(0,404)" d="M80,0h333" style="stroke: rgb(68, 68, 68); stroke-opacity: 1; stroke-width: 1px;"/></g><path class="xlines-below"/><path class="ylines-below"/><g class="overlines-below"/><g class="xaxislayer-below"/><g class="yaxislayer-below"/><g class="overaxes-below"/><g class="plot" transform="translate(80,100)" clip-path="url(#clip432b88xyplot)"><g class="scatterlayer mlayer"><g class="trace scatter trace95c1a9" style="stroke-miterlimit: 2; opacity: 1;"><g class="fills"/><g class="errorbars"/><g class="lines"><path class="js-line" d="M0,304L333,16" style="vector-effect: non-scaling-stroke; fill: none; stroke: rgb(0, 0, 0); stroke-opacity: 1; stroke-width: 1px; opacity: 1; stroke-dasharray: 3px, 3px;"/></g><g class="points"/><g class="text"/></g><g class="trace scatter traced924dd" style="stroke-miterlimit: 2; opacity: 1;"><g class="fills"/><g class="errorbars"/><g class="lines"><path class="js-line" d="M0,304L0.75,288.44L0.8,288.44L1.55,269.96L1.57,269.96L2.32,252.61L2.35,252.61L3.1,237.83L3.12,237.83L3.87,223.89L3.9,223.89L4.6,215.36L4.65,215.36L5.4,205.09L5.42,205.09L6.97,189.73L6.97,189.12L10.09,163.44L10.12,163.44L14.66,135.1L14.68,135.1L15.96,126.51L15.96,126.28L17.02,119.63L17.05,119.63L18.35,111.56L18.37,111.56L20.83,93.48L20.83,93.1L21.41,89.84L21.41,89.55L23.42,79.89L23.47,79.89L24.99,71.76L25.04,71.76L26.34,66.96L26.41,66.96L28.8,59.9L28.87,59.9L29.93,58.17L30.22,58.17L32.79,54.64L32.83,54.64L37.32,52.01L37.41,52.01L39.8,50.91L39.8,50.88L46.6,48.85L46.6,48.83L50.87,48.13L50.87,48.07L58.89,46.63L58.89,46.6L73.92,44.23L74.89,44.23L84.1,43.07L85.23,43.07L88.91,42.46L89.35,42.46L99.51,41.54L99.51,41.51L116.91,39.43L116.91,39.4L124.53,38.65L124.53,38.62L127.98,37.98L128.16,37.98L157.18,34.54L157.84,34.54L189.21,30.98L189.68,30.98L233.47,26.64L234.24,26.64L246.37,25.52L246.93,25.52L260.68,24.21L260.68,24.16L280.25,21.93L280.25,21.9L289.9,20.6L289.9,20.54L320.18,17.39L320.18,17.36L333,16" style="vector-effect: non-scaling-stroke; fill: none; stroke: rgb(0, 113, 197); stroke-opacity: 1; stroke-width: 3px; opacity: 1;"/></g><g class="points"/><g class="text"/></g></g></g><g class="overplot"/><path class="xlines-above crisp" d="M0,0" style="fill: none;"/><path class="ylines-above crisp" d="M0,0" style="fill: none;"/><g class="overlines-above"/><g class="xaxislayer-above"><g class="xtick"><text text-anchor="middle" x="0" y="433" transform="translate(80,0)" style="font-family: 'Franklin Gothic'; font-size: 12px; fill: rgb(68, 68, 68); fill-opacity: 1; white-space: pre; opacity: 1;">0</text></g><g class="xtick"><text text-anchor="middle" x="0" y="433" style="font-family: 'Franklin Gothic'; font-size: 12px; fill: rgb(68, 68, 68); fill-opacity: 1; white-space: pre; opacity: 1;" transform="translate(146.6,0)">0.2</text></g><g class="xtick"><text text-anchor="middle" x="0" y="433" style="font-family: 'Franklin Gothic'; font-size: 12px; fill: rgb(68, 68, 68); fill-opacity: 1; white-space: pre; opacity: 1;" transform="translate(213.2,0)">0.4</text></g><g class="xtick"><text text-anchor="middle" x="0" y="433" style="font-family: 'Franklin Gothic'; font-size: 12px; fill: rgb(68, 68, 68); fill-opacity: 1; white-space: pre; opacity: 1;" transform="translate(279.8,0)">0.6</text></g><g class="xtick"><text text-anchor="middle" x="0" y="433" style="font-family: 'Franklin Gothic'; font-size: 12px; fill: rgb(68, 68, 68); fill-opacity: 1; white-space: pre; opacity: 1;" transform="translate(346.4,0)">0.8</text></g><g class="xtick"><text text-anchor="middle" x="0" y="433" style="font-family: 'Franklin Gothic'; font-size: 12px; fill: rgb(68, 68, 68); fill-opacity: 1; white-space: pre; opacity: 1;" transform="translate(413,0)">1</text></g></g><g class="yaxislayer-above"><g class="ytick"><text text-anchor="end" x="79" y="4.199999999999999" transform="translate(0,404)" style="font-family: 'Franklin Gothic'; font-size: 12px; fill: rgb(68, 68, 68); fill-opacity: 1; white-space: pre; opacity: 1;">0</text></g><g class="ytick"><text text-anchor="end" x="79" y="4.199999999999999" style="font-family: 'Franklin Gothic'; font-size: 12px; fill: rgb(68, 68, 68); fill-opacity: 1; white-space: pre; opacity: 1;" transform="translate(0,346.4)">0.2</text></g><g class="ytick"><text text-anchor="end" x="79" y="4.199999999999999" style="font-family: 'Franklin Gothic'; font-size: 12px; fill: rgb(68, 68, 68); fill-opacity: 1; white-space: pre; opacity: 1;" transform="translate(0,288.8)">0.4</text></g><g class="ytick"><text text-anchor="end" x="79" y="4.199999999999999" style="font-family: 'Franklin Gothic'; font-size: 12px; fill: rgb(68, 68, 68); fill-opacity: 1; white-space: pre; opacity: 1;" transform="translate(0,231.2)">0.6</text></g><g class="ytick"><text text-anchor="end" x="79" y="4.199999999999999" style="font-family: 'Franklin Gothic'; font-size: 12px; fill: rgb(68, 68, 68); fill-opacity: 1; white-space: pre; opacity: 1;" transform="translate(0,173.6)">0.8</text></g><g class="ytick"><text text-anchor="end" x="79" y="4.199999999999999" style="font-family: 'Franklin Gothic'; font-size: 12px; fill: rgb(68, 68, 68); fill-opacity: 1; white-space: pre; opacity: 1;" transform="translate(0,116)">1</text></g></g><g class="overaxes-above"/></g><g class="subplot x2y2"><g class="layer-subplot"><g class="shapelayer"/><g class="imagelayer"/></g><g class="minor-gridlayer"><g class="x2"/><g class="y2"/></g><g class="gridlayer"><g class="x2"><path class="x2grid crisp" transform="translate(553.6,0)" d="M0,100v320" style="stroke: rgb(238, 238, 238); stroke-opacity: 1; stroke-width: 1px;"/><path class="x2grid crisp" transform="translate(620.2,0)" d="M0,100v320" style="stroke: rgb(238, 238, 238); stroke-opacity: 1; stroke-width: 1px;"/><path class="x2grid crisp" transform="translate(686.8000000000001,0)" d="M0,100v320" style="stroke: rgb(238, 238, 238); stroke-opacity: 1; stroke-width: 1px;"/><path class="x2grid crisp" transform="translate(753.4000000000001,0)" d="M0,100v320" style="stroke: rgb(238, 238, 238); stroke-opacity: 1; stroke-width: 1px;"/></g><g class="y2"><path class="y2grid crisp" transform="translate(0,346.4)" d="M487.00000000000006,0h332.99999999999994" style="stroke: rgb(238, 238, 238); stroke-opacity: 1; stroke-width: 1px;"/><path class="y2grid crisp" transform="translate(0,288.8)" d="M487.00000000000006,0h332.99999999999994" style="stroke: rgb(238, 238, 238); stroke-opacity: 1; stroke-width: 1px;"/><path class="y2grid crisp" transform="translate(0,231.2)" d="M487.00000000000006,0h332.99999999999994" style="stroke: rgb(238, 238, 238); stroke-opacity: 1; stroke-width: 1px;"/><path class="y2grid crisp" transform="translate(0,173.6)" d="M487.00000000000006,0h332.99999999999994" style="stroke: rgb(238, 238, 238); stroke-opacity: 1; stroke-width: 1px;"/><path class="y2grid crisp" transform="translate(0,116)" d="M487.00000000000006,0h332.99999999999994" style="stroke: rgb(238, 238, 238); stroke-opacity: 1; stroke-width: 1px;"/></g></g><g class="zerolinelayer"><path class="x2zl zl crisp" transform="translate(487.00000000000006,0)" d="M0,100v320" style="stroke: rgb(68, 68, 68); stroke-opacity: 1; stroke-width: 1px;"/><path class="y2zl zl crisp" transform="translate(0,404)" d="M487.00000000000006,0h332.99999999999994" style="stroke: rgb(68, 68, 68); stroke-opacity: 1; stroke-width: 1px;"/></g><path class="xlines-below"/><path class="ylines-below"/><g class="overlines-below"/><g class="xaxislayer-below"/><g class="yaxislayer-below"/><g class="overaxes-below"/><g class="plot" transform="translate(487.00000000000006,100)" clip-path="url(#clip432b88x2y2plot)"><g class="scatterlayer mlayer"><g class="trace scatter trace98a09d" style="stroke-miterlimit: 2; opacity: 1;"><g class="fills"/><g class="errorbars"/><g class="lines"><path class="js-line" d="M333,189.28L329.49,183.9L329.49,183.9L329.49,183.89L328.75,182.24L328.72,182.25L328.05,181.28L328.05,181.28L328.05,181.27L325.24,176.81L325.24,176.81L325.24,176.8L324.51,175.26L324.47,175.27L323.5,174.06L323.47,174.07L322.73,172.05L322.73,172.05L322.7,172.05L322.13,171.01L322.13,171L320.33,165.7L320.29,165.71L318.55,160.65L318.52,160.66L316.28,154.51L316.28,154.5L314.34,148.52L314.31,148.53L313.57,146.38L313.57,146.38L313.54,146.38L312.63,144.16L312.63,144.15L310.19,136.66L310.19,136.64L309.46,133.26L309.42,133.26L308.72,131.25L308.72,131.24L306.41,124.06L306.41,124.05L297.22,81.12L297.19,81.13L292.7,65.21L292.67,65.22L291.53,63.06L291.5,63.07L286.65,57.1L286.62,57.11L282.17,54.42L282.17,54.4L276.65,53.22L276.62,53.23L274.51,52.73L274.51,52.7L263.11,51.04L263.08,51.05L261.1,50.85L261.07,50.86L258.39,50.54L258.36,50.54L247.29,49.27L247.26,49.28L212.75,46.81L212.75,46.77L208.77,46.52L208.77,46.48L207.4,46.48L207.36,46.48L205.73,46.25L205.69,46.25L202.38,46.13L202.38,46.09L199,45.77L199,45.73L182.52,43.15L182.52,43.1L180.28,42.71L180.24,42.71L132.22,37.25L132.19,37.26L125.67,36.43L125.64,36.44L123.26,35.99L123.26,35.93L118.15,35.81L118.15,35.74L112.83,35.2L112.79,35.21L108.98,34.99L108.98,34.91L105.44,34.86L105.44,34.78L102.73,34.51L102.73,34.43L100.72,34.1L100.72,34.02L98.15,33.68L98.15,33.6L98.15,33.51L94.77,33.38L94.77,33.29L91.63,33.1L91.63,33.01L89.29,32.76L89.29,32.67L89.25,32.67L86.91,32.41L86.91,32.31L81.39,32.61L81.39,32.51L76.51,32.72L76.51,32.61L73.44,32.56L73.44,32.45L73.44,32.33L70.16,32.44L70.16,32.32L64.01,32.72L64.01,32.59L61.63,32.5L61.63,32.36L60.13,32.03L60.09,32.04L57.58,32.11L57.55,31.96L57.55,31.82L50.76,32.79L50.76,32.63L50.23,32.45L50.03,32.51L49.99,32.52L46.11,33.28L46.11,33.09L43.31,33.54L43.27,33.36L43.27,33.16L42.03,32.83L42,32.84L40.43,32.82L40.43,32.61L39.19,32.23L39.16,32.24L36.99,32.45L36.99,32.22L31.77,33.91L31.7,33.68L31.7,33.41L28.66,34.26L28.66,33.96L27.15,34.58L27.12,34.29L27.12,33.98L25.85,34.15L25.85,33.83L22.87,34.89L22.87,34.52L20.7,35.92L20.67,35.55L20.67,35.14L19.63,35.66L19.63,35.23L19.63,34.8L19.43,34.98L19.4,34.15L19.06,34.44L19.06,34L18.89,33.7L17.99,34.06L17.99,33.59L17.52,33.06L17.26,33.31L17.22,33.34L17.09,32.97L15.82,33.71L15.82,33.18L15.15,33.33L15.15,32.77L13.81,33.67L13.81,33.06L13.61,31.4L13.01,32.08L12.97,32.12L12.81,31.64L12.47,32.04L12.47,31.35L12.31,30.85L11.67,31.61L11.67,30.87L11.14,31.55L11.14,30.77L11.14,29.99L9.43,31.46L9.43,30.55L9.33,29.76L8.59,30.88L8.59,29.87L8.23,29.4L7.76,30.16L7.76,29.04L6.55,29.98L6.55,28.64L5.95,29.86L5.92,28.45L5.92,26.96L4.01,31.87L3.98,32L2.81,38.15L2.81,35.2L1.54,44.24L1.54,39.04L1.4,35.2L0.77,49.23L0.77,39.04L0.77,16L0.03,16L0,16" style="vector-effect: non-scaling-stroke; fill: none; stroke: rgb(0, 113, 197); stroke-opacity: 1; stroke-width: 3px; opacity: 1;"/></g><g class="points"/><g class="text"/></g></g></g><g class="overplot"/><path class="xlines-above crisp" d="M0,0" style="fill: none;"/><path class="ylines-above crisp" d="M0,0" style="fill: none;"/><g class="overlines-above"/><g class="xaxislayer-above"><g class="x2tick"><text text-anchor="middle" x="0" y="433" transform="translate(487.00000000000006,0)" style="font-family: 'Franklin Gothic'; font-size: 12px; fill: rgb(68, 68, 68); fill-opacity: 1; white-space: pre; opacity: 1;">0</text></g><g class="x2tick"><text text-anchor="middle" x="0" y="433" style="font-family: 'Franklin Gothic'; font-size: 12px; fill: rgb(68, 68, 68); fill-opacity: 1; white-space: pre; opacity: 1;" transform="translate(553.6,0)">0.2</text></g><g class="x2tick"><text text-anchor="middle" x="0" y="433" style="font-family: 'Franklin Gothic'; font-size: 12px; fill: rgb(68, 68, 68); fill-opacity: 1; white-space: pre; opacity: 1;" transform="translate(620.2,0)">0.4</text></g><g class="x2tick"><text text-anchor="middle" x="0" y="433" style="font-family: 'Franklin Gothic'; font-size: 12px; fill: rgb(68, 68, 68); fill-opacity: 1; white-space: pre; opacity: 1;" transform="translate(686.8000000000001,0)">0.6</text></g><g class="x2tick"><text text-anchor="middle" x="0" y="433" style="font-family: 'Franklin Gothic'; font-size: 12px; fill: rgb(68, 68, 68); fill-opacity: 1; white-space: pre; opacity: 1;" transform="translate(753.4000000000001,0)">0.8</text></g><g class="x2tick"><text text-anchor="middle" x="0" y="433" style="font-family: 'Franklin Gothic'; font-size: 12px; fill: rgb(68, 68, 68); fill-opacity: 1; white-space: pre; opacity: 1;" transform="translate(820,0)">1</text></g></g><g class="yaxislayer-above"/><g class="overaxes-above"/></g></g><g class="polarlayer"/><g class="smithlayer"/><g class="ternarylayer"/><g class="geolayer"/><g class="funnelarealayer"/><g class="pielayer"/><g class="iciclelayer"/><g class="treemaplayer"/><g class="sunburstlayer"/><g class="glimages"/><defs id="topdefs-432b88"><g class="clips"/><clipPath id="legend432b88"><rect width="132" height="48" x="0.5" y="0.5"/></clipPath></defs><g class="layer-above"><g class="imagelayer"/><g class="shapelayer"/></g><g class="infolayer"><g class="legend" pointer-events="all" transform="translate(280,348.59999999999997)"><rect class="bg" shape-rendering="crispEdges" style="stroke: rgb(0, 0, 0); stroke-opacity: 1; fill: rgb(255, 255, 255); fill-opacity: 1; stroke-width: 0.5px;" width="132.5" height="48.5" x="0.25" y="0.25"/><g class="scrollbox" transform="" clip-path="url(#legend432b88)"><g class="groups" transform=""><g class="traces" transform="translate(0.5,15)" style="opacity: 1;"><text class="legendtext" text-anchor="start" x="40" y="4.680000000000001" style="font-family: 'Franklin Gothic'; font-size: 12px; fill: rgb(68, 68, 68); fill-opacity: 1; white-space: pre;">Baseline</text><g class="layers" style="opacity: 1;"><g class="legendfill"/><g class="legendlines"><path class="js-line" d="M5,0h30" style="fill: none; stroke: rgb(0, 0, 0); stroke-opacity: 1; stroke-dasharray: 3px, 3px; stroke-width: 1px;"/></g><g class="legendsymbols"><g class="legendpoints"/></g></g><rect class="legendtoggle" x="0" y="-9.5" width="127" height="19" style="fill: rgb(0, 0, 0); fill-opacity: 0;"/></g><g class="traces" transform="translate(0.5,34)" style="opacity: 1;"><text class="legendtext" text-anchor="start" x="40" y="4.680000000000001" style="font-family: 'Franklin Gothic'; font-size: 12px; fill: rgb(68, 68, 68); fill-opacity: 1; white-space: pre;">AUC = 0.9082</text><g class="layers" style="opacity: 1;"><g class="legendfill"/><g class="legendlines"><path class="js-line" d="M5,0h30" style="fill: none; stroke: rgb(0, 113, 197); stroke-opacity: 1; stroke-width: 3px;"/></g><g class="legendsymbols"><g class="legendpoints"/></g></g><rect class="legendtoggle" x="0" y="-9.5" width="127" height="19" style="fill: rgb(0, 0, 0); fill-opacity: 0;"/></g></g></g><rect class="scrollbar" rx="20" ry="3" width="0" height="0" style="fill: rgb(128, 139, 164); fill-opacity: 1;" x="0" y="0"/></g><g class="g-gtitle"><text class="gtitle" x="450" y="50" text-anchor="middle" dy="0em" style="font-family: 'Franklin Gothic'; font-size: 17px; fill: rgb(68, 68, 68); opacity: 1; font-weight: normal; white-space: pre;">SVC ROC and Precision-Recall Curves</text></g><g class="g-xtitle"><text class="xtitle" x="246.5" y="472" text-anchor="middle" style="font-family: 'Franklin Gothic'; font-size: 14px; fill: rgb(68, 68, 68); opacity: 1; font-weight: normal; white-space: pre;">False Positive Rate (1 - Specificity)</text></g><g class="g-x2title"><text class="x2title" x="653.5" y="472" text-anchor="middle" style="font-family: 'Franklin Gothic'; font-size: 14px; fill: rgb(68, 68, 68); opacity: 1; font-weight: normal; white-space: pre;">Recall (Sensitivity)</text></g><g class="g-ytitle"><text class="ytitle" transform="rotate(-90,42,260)" x="42" y="260" text-anchor="middle" style="font-family: 'Franklin Gothic'; font-size: 14px; fill: rgb(68, 68, 68); opacity: 1; font-weight: normal; white-space: pre;">True Positive Rate (Sensitivity)</text></g><g class="g-y2title"><text class="y2title" transform="rotate(-90,456.00000000000006,260)" x="456.00000000000006" y="260" text-anchor="middle" style="font-family: 'Franklin Gothic'; font-size: 14px; fill: rgb(68, 68, 68); opacity: 1; font-weight: normal; white-space: pre;">Precision (PPV)</text></g><g class="annotation" data-index="0" style="opacity: 1;"><g class="annotation-text-g" transform="rotate(0,246.5,78)"><g class="cursor-pointer" transform="translate(110,56)"><rect class="bg" x="0.5" y="0.5" width="273" height="43" style="stroke-width: 1px; stroke: rgb(0, 0, 0); stroke-opacity: 0; fill: rgb(0, 0, 0); fill-opacity: 0;"/><text class="annotation-text" text-anchor="middle" x="137" y="17" style="font-family: 'Franklin Gothic'; font-size: 16px; fill: rgb(68, 68, 68); fill-opacity: 1; white-space: pre;"><tspan class="line" dy="0em" x="137" y="17">Receiver Operating Characteristic</tspan><tspan class="line" dy="1.3em" x="137" y="17">(ROC) Curve</tspan></text></g></g></g><g class="annotation" data-index="1" style="opacity: 1;"><g class="annotation-text-g" transform="rotate(0,653.5,78)"><g class="cursor-pointer" transform="translate(563,56)"><rect class="bg" x="0.5" y="0.5" width="180" height="43" style="stroke-width: 1px; stroke: rgb(0, 0, 0); stroke-opacity: 0; fill: rgb(0, 0, 0); fill-opacity: 0;"/><text class="annotation-text" text-anchor="middle" x="90.5" y="17" style="font-family: 'Franklin Gothic'; font-size: 16px; fill: rgb(68, 68, 68); fill-opacity: 1; white-space: pre;"><tspan class="line" dy="0em" x="90.5" y="17">Precision-Recall Curve</tspan><tspan class="line" dy="1.3em" x="90.5" y="17">AUPRC = 0.874</tspan></text></g></g></g></g></svg>