<svg class="main-svg" xmlns="http://www.w3.org/2000/svg" xmlns:xlink="http://www.w3.org/1999/xlink" width="900" height="500" style="" viewBox="0 0 900 500"><rect x="0" y="0" width="900" height="500" style="fill: rgb(255, 255, 255); fill-opacity: 1;"/><defs id="defs-a7a725"><g class="clips"><clipPath id="clipa7a725xyplot" class="plotclip"><rect width="333" height="320"/></clipPath><clipPath id="clipa7a725x2y2plot" class="plotclip"><rect width="332.99999999999994" height="320"/></clipPath><clipPath class="axesclip" id="clipa7a725x"><rect x="80" y="0" width="333" height="500"/></clipPath><clipPath class="axesclip" id="clipa7a725y"><rect x="0" y="100" width="900" height="320"/></clipPath><clipPath class="axesclip" id="clipa7a725xy"><rect x="80" y="100" width="333" height="320"/></clipPath><clipPath class="axesclip" id="clipa7a725y2"><rect x="0" y="100" width="900" height="320"/></clipPath><clipPath class="axesclip" id="clipa7a725xy2"><rect x="80" y="100" width="333" height="320"/></clipPath><clipPath class="axesclip" id="clipa7a725x2"><rect x="487.00000000000006" y="0" width="332.99999999999994" height="500"/></clipPath><clipPath class="axesclip" id="clipa7a725x2y"><rect x="487.00000000000006" y="100" width="332.99999999999994" height="320"/></clipPath><clipPath class="axesclip" id="clipa7a725x2y2"><rect x="487.00000000000006" y="100" width="332.99999999999994" height="320"/></clipPath></g><g class="gradients"/><g class="patterns"/></defs><g class="bglayer"/><g class="layer-below"><g class="imagelayer"/><g class="shapelayer"/></g><g class="cartesianlayer"><g class="subplot xy"><g class="layer-subplot"><g class="shapelayer"/><g class="imagelayer"/></g><g class="minor-gridlayer"><g class="x"/><g class="y"/></g><g class="gridlayer"><g class="x"><path class="xgrid crisp" transform="translate(146.6,0)" d="M0,100v320" style="stroke: rgb(238, 238, 238); stroke-opacity: 1; stroke-width: 1px;"/><path class="xgrid crisp" transform="translate(213.2,0)" d="M0,100v320" style="stroke: rgb(238, 238, 238); stroke-opacity: 1; stroke-width: 1px;"/><path class="xgrid crisp" transform="translate(279.8,0)" d="M0,100v320" style="stroke: rgb(238, 238, 238); stroke-opacity: 1; stroke-width: 1px;"/><path class="xgrid crisp" transform="translate(346.4,0)" d="M0,100v320" style="stroke: rgb(238, 238, 238); stroke-opacity: 1; stroke-width: 1px;"/></g><g class="y"><path class="ygrid crisp" transform="translate(0,346.4)" d="M80,0h333" style="stroke: rgb(238, 238, 238); stroke-opacity: 1; stroke-width: 1px;"/><path class="ygrid crisp" transform="translate(0,288.8)" d="M80,0h333" style="stroke: rgb(238, 238, 238); stroke-opacity: 1; stroke-width: 1px;"/><path class="ygrid crisp" transform="translate(0,231.2)" d="M80,0h333" style="stroke: rgb(238, 238, 238); stroke-opacity: 1; stroke-width: 1px;"/><path class="ygrid crisp" transform="translate(0,173.6)" d="M80,0h333" style="stroke: rgb(238, 238, 238); stroke-opacity: 1; stroke-width: 1px;"/><path class="ygrid crisp" transform="translate(0,116)" d="M80,0h333" style="stroke: rgb(238, 238, 238); stroke-opacity: 1; stroke-width: 1px;"/></g></g><g class="zerolinelayer"><path class="xzl zl crisp" transform="translate(80,0)" d="M0,100v320" style="stroke: rgb(68, 68, 68); stroke-opacity: 1; stroke-width: 1px;"/><path class="yzl zl crisp" transform="translate(0,404)" d="M80,0h333" style="stroke: rgb(68, 68, 68); stroke-opacity: 1; stroke-width: 1px;"/></g><path class="xlines-below"/><path class="ylines-below"/><g class="overlines-below"/><g class="xaxislayer-below"/><g class="yaxislayer-below"/><g class="overaxes-below"/><g class="plot" transform="translate(80,100)" clip-path="url(#clipa7a725xyplot)"><g class="scatterlayer mlayer"><g class="trace scatter trace01e515" style="stroke-miterlimit: 2; opacity: 1;"><g class="fills"/><g class="errorbars"/><g class="lines"><path class="js-line" d="M0,304L333,16" style="vector-effect: non-scaling-stroke; fill: none; stroke: rgb(0, 0, 0); stroke-opacity: 1; stroke-width: 1px; opacity: 1; stroke-dasharray: 3px, 3px;"/></g><g class="points"/><g class="text"/></g><g class="trace scatter traceed6b7e" style="stroke-miterlimit: 2; opacity: 1;"><g class="fills"/><g class="errorbars"/><g class="lines"><path class="js-line" d="M0,304L0.75,161.24L0.77,161.24L1.51,148.29L1.53,148.29L2.28,137.59L2.3,137.59L3.03,130.21L3.08,130.21L4.34,121.79L4.43,121.79L5.76,115.08L5.78,115.08L6.75,111.59L6.77,111.59L10.76,92.53L10.8,92.53L12.18,86.97L12.2,86.97L13.46,81.59L13.53,81.59L14.28,78.99L14.3,78.99L15.05,76.5L15.05,76.42L16.65,69.3L16.67,69.3L18.77,60.39L18.8,60.39L19.92,56.52L19.95,56.52L22.05,48.54L22.07,48.54L23.02,43.53L23.07,43.53L24.35,42.03L24.55,42.03L50.3,39.74L51.18,39.74L62.87,38.36L62.87,38.3L69.14,37.55L69.14,37.52L76.53,36.77L76.53,36.71L89.81,35.35L89.81,35.32L116.09,33.15L116.76,33.15L131.06,31.94L131.06,31.91L159.93,30.2L159.93,30.17L169.53,29.42L169.53,29.39L182.57,28.64L182.57,28.61L193.66,27.86L193.66,27.8L253.04,22.91L253.04,22.88L261.03,22.13L261.03,22.1L272.28,20.66L272.28,20.6L275.62,20.22L275.88,20.22L296.56,18.37L296.56,18.34L307.67,17.59L307.67,17.56L322,16.81L322,16.72L333,16" style="vector-effect: non-scaling-stroke; fill: none; stroke: rgb(0, 113, 197); stroke-opacity: 1; stroke-width: 3px; opacity: 1;"/></g><g class="points"/><g class="text"/></g></g></g><g class="overplot"/><path class="xlines-above crisp" d="M0,0" style="fill: none;"/><path class="ylines-above crisp" d="M0,0" style="fill: none;"/><g class="overlines-above"/><g class="xaxislayer-above"><g class="xtick"><text text-anchor="middle" x="0" y="433" transform="translate(80,0)" style="font-family: 'Franklin Gothic'; font-size: 12px; fill: rgb(68, 68, 68); fill-opacity: 1; white-space: pre; opacity: 1;">0</text></g><g class="xtick"><text text-anchor="middle" x="0" y="433" style="font-family: 'Franklin Gothic'; font-size: 12px; fill: rgb(68, 68, 68); fill-opacity: 1; white-space: pre; opacity: 1;" transform="translate(146.6,0)">0.2</text></g><g class="xtick"><text text-anchor="middle" x="0" y="433" style="font-family: 'Franklin Gothic'; font-size: 12px; fill: rgb(68, 68, 68); fill-opacity: 1; white-space: pre; opacity: 1;" transform="translate(213.2,0)">0.4</text></g><g class="xtick"><text text-anchor="middle" x="0" y="433" style="font-family: 'Franklin Gothic'; font-size: 12px; fill: rgb(68, 68, 68); fill-opacity: 1; white-space: pre; opacity: 1;" transform="translate(279.8,0)">0.6</text></g><g class="xtick"><text text-anchor="middle" x="0" y="433" style="font-family: 'Franklin Gothic'; font-size: 12px; fill: rgb(68, 68, 68); fill-opacity: 1; white-space: pre; opacity: 1;" transform="translate(346.4,0)">0.8</text></g><g class="xtick"><text text-anchor="middle" x="0" y="433" style="font-family: 'Franklin Gothic'; font-size: 12px; fill: rgb(68, 68, 68); fill-opacity: 1; white-space: pre; opacity: 1;" transform="translate(413,0)">1</text></g></g><g class="yaxislayer-above"><g class="ytick"><text text-anchor="end" x="79" y="4.199999999999999" transform="translate(0,404)" style="font-family: 'Franklin Gothic'; font-size: 12px; fill: rgb(68, 68, 68); fill-opacity: 1; white-space: pre; opacity: 1;">0</text></g><g class="ytick"><text text-anchor="end" x="79" y="4.199999999999999" style="font-family: 'Franklin Gothic'; font-size: 12px; fill: rgb(68, 68, 68); fill-opacity: 1; white-space: pre; opacity: 1;" transform="translate(0,346.4)">0.2</text></g><g class="ytick"><text text-anchor="end" x="79" y="4.199999999999999" style="font-family: 'Franklin Gothic'; font-size: 12px; fill: rgb(68, 68, 68); fill-opacity: 1; white-space: pre; opacity: 1;" transform="translate(0,288.8)">0.4</text></g><g class="ytick"><text text-anchor="end" x="79" y="4.199999999999999" style="font-family: 'Franklin Gothic'; font-size: 12px; fill: rgb(68, 68, 68); fill-opacity: 1; white-space: pre; opacity: 1;" transform="translate(0,231.2)">0.6</text></g><g class="ytick"><text text-anchor="end" x="79" y="4.199999999999999" style="font-family: 'Franklin Gothic'; font-size: 12px; fill: rgb(68, 68, 68); fill-opacity: 1; white-space: pre; opacity: 1;" transform="translate(0,173.6)">0.8</text></g><g class="ytick"><text text-anchor="end" x="79" y="4.199999999999999" style="font-family: 'Franklin Gothic'; font-size: 12px; fill: rgb(68, 68, 68); fill-opacity: 1; white-space: pre; opacity: 1;" transform="translate(0,116)">1</text></g></g><g class="overaxes-above"/></g><g class="subplot x2y2"><g class="layer-subplot"><g class="shapelayer"/><g class="imagelayer"/></g><g class="minor-gridlayer"><g class="x2"/><g class="y2"/></g><g class="gridlayer"><g class="x2"><path class="x2grid crisp" transform="translate(553.6,0)" d="M0,100v320" style="stroke: rgb(238, 238, 238); stroke-opacity: 1; stroke-width: 1px;"/><path class="x2grid crisp" transform="translate(620.2,0)" d="M0,100v320" style="stroke: rgb(238, 238, 238); stroke-opacity: 1; stroke-width: 1px;"/><path class="x2grid crisp" transform="translate(686.8000000000001,0)" d="M0,100v320" style="stroke: rgb(238, 238, 238); stroke-opacity: 1; stroke-width: 1px;"/><path class="x2grid crisp" transform="translate(753.4000000000001,0)" d="M0,100v320" style="stroke: rgb(238, 238, 238); stroke-opacity: 1; stroke-width: 1px;"/></g><g class="y2"><path class="y2grid crisp" transform="translate(0,346.4)" d="M487.00000000000006,0h332.99999999999994" style="stroke: rgb(238, 238, 238); stroke-opacity: 1; stroke-width: 1px;"/><path class="y2grid crisp" transform="translate(0,288.8)" d="M487.00000000000006,0h332.99999999999994" style="stroke: rgb(238, 238, 238); stroke-opacity: 1; stroke-width: 1px;"/><path class="y2grid crisp" transform="translate(0,231.2)" d="M487.00000000000006,0h332.99999999999994" style="stroke: rgb(238, 238, 238); stroke-opacity: 1; stroke-width: 1px;"/><path class="y2grid crisp" transform="translate(0,173.6)" d="M487.00000000000006,0h332.99999999999994" style="stroke: rgb(238, 238, 238); stroke-opacity: 1; stroke-width: 1px;"/><path class="y2grid crisp" transform="translate(0,116)" d="M487.00000000000006,0h332.99999999999994" style="stroke: rgb(238, 238, 238); stroke-opacity: 1; stroke-width: 1px;"/></g></g><g class="zerolinelayer"><path class="x2zl zl crisp" transform="translate(487.00000000000006,0)" d="M0,100v320" style="stroke: rgb(68, 68, 68); stroke-opacity: 1; stroke-width: 1px;"/><path class="y2zl zl crisp" transform="translate(0,404)" d="M487.00000000000006,0h332.99999999999994" style="stroke: rgb(68, 68, 68); stroke-opacity: 1; stroke-width: 1px;"/></g><path class="xlines-below"/><path class="ylines-below"/><g class="overlines-below"/><g class="xaxislayer-below"/><g class="yaxislayer-below"/><g class="overaxes-below"/><g class="plot" transform="translate(487.00000000000006,100)" clip-path="url(#clipa7a725x2y2plot)"><g class="scatterlayer mlayer"><g class="trace scatter tracef4b23e" style="stroke-miterlimit: 2; opacity: 1;"><g class="fills"/><g class="errorbars"/><g class="lines"><path class="js-line" d="M333,189.28L330.76,183.22L330.76,183.22L330.76,183.21L329.02,179.96L329.02,179.96L329.02,179.95L322.67,165.67L322.67,165.66L320.73,160.13L320.73,160.12L319.99,157.15L319.99,157.15L319.96,157.15L317.58,145.32L317.58,145.31L316.85,142.11L316.81,142.12L314.71,128.06L314.71,128.05L313.97,123.55L313.94,123.56L313.2,119.75L313.17,119.76L312.43,112.44L312.4,112.45L311.66,108.33L311.63,108.34L306.98,81.83L306.98,81.81L306.25,76.88L306.21,76.89L305.48,72.43L305.45,72.43L305.28,70.3L305.28,70.28L304.54,62.58L304.51,62.58L303.77,54.74L303.74,54.75L301.97,46.08L301.93,46.08L298.26,45.5L298.22,45.51L289.86,44.28L289.86,44.26L285.85,43.3L285.85,43.27L283.94,42.74L283.91,42.74L281.43,42.31L281.43,42.28L281.4,42.28L275.62,41.22L275.62,41.19L272.37,40.64L272.37,40.61L262.27,38.64L262.27,38.6L258.9,37.67L258.9,37.64L246.09,34.53L246.05,34.53L241.21,33.23L241.21,33.2L228.53,30.45L228.53,30.41L226.86,30.05L226.83,30.05L217.06,26.56L217.03,26.56L213.65,26.05L213.65,26.01L213.65,25.97L209.87,24.51L209.84,24.51L205.86,23.78L205.86,23.74L192.05,21.03L192.02,21.03L187.37,20.4L187.33,20.4L181.15,19.62L181.11,19.62L177.1,19.12L177.07,19.12L169.64,18.42L169.64,18.36L164.66,17.92L164.63,17.92L134.93,17.21L134.93,17.14L47.75,17.4L47.72,17.41L25.55,17.87L25.52,17.88L14.61,19.26L14.58,19.27L9.7,20.88L9.66,20.9L6.35,23.38L6.32,23.42L4.15,27.16L4.11,27.25L3.14,30.55L3.14,27.76L2.64,29.88L2.64,26.54L2.61,23.2L1.91,25.76L1.87,25.93L1.67,27.08L1.67,21.65L0.77,28L0.74,28.52L0.3,44.8L0.27,48L0.2,57.14L0.2,16L0,16" style="vector-effect: non-scaling-stroke; fill: none; stroke: rgb(0, 113, 197); stroke-opacity: 1; stroke-width: 3px; opacity: 1;"/></g><g class="points"/><g class="text"/></g></g></g><g class="overplot"/><path class="xlines-above crisp" d="M0,0" style="fill: none;"/><path class="ylines-above crisp" d="M0,0" style="fill: none;"/><g class="overlines-above"/><g class="xaxislayer-above"><g class="x2tick"><text text-anchor="middle" x="0" y="433" transform="translate(487.00000000000006,0)" style="font-family: 'Franklin Gothic'; font-size: 12px; fill: rgb(68, 68, 68); fill-opacity: 1; white-space: pre; opacity: 1;">0</text></g><g class="x2tick"><text text-anchor="middle" x="0" y="433" style="font-family: 'Franklin Gothic'; font-size: 12px; fill: rgb(68, 68, 68); fill-opacity: 1; white-space: pre; opacity: 1;" transform="translate(553.6,0)">0.2</text></g><g class="x2tick"><text text-anchor="middle" x="0" y="433" style="font-family: 'Franklin Gothic'; font-size: 12px; fill: rgb(68, 68, 68); fill-opacity: 1; white-space: pre; opacity: 1;" transform="translate(620.2,0)">0.4</text></g><g class="x2tick"><text text-anchor="middle" x="0" y="433" style="font-family: 'Franklin Gothic'; font-size: 12px; fill: rgb(68, 68, 68); fill-opacity: 1; white-space: pre; opacity: 1;" transform="translate(686.8000000000001,0)">0.6</text></g><g class="x2tick"><text text-anchor="middle" x="0" y="433" style="font-family: 'Franklin Gothic'; font-size: 12px; fill: rgb(68, 68, 68); fill-opacity: 1; white-space: pre; opacity: 1;" transform="translate(753.4000000000001,0)">0.8</text></g><g class="x2tick"><text text-anchor="middle" x="0" y="433" style="font-family: 'Franklin Gothic'; font-size: 12px; fill: rgb(68, 68, 68); fill-opacity: 1; white-space: pre; opacity: 1;" transform="translate(820,0)">1</text></g></g><g class="yaxislayer-above"/><g class="overaxes-above"/></g></g><g class="polarlayer"/><g class="smithlayer"/><g class="ternarylayer"/><g class="geolayer"/><g class="funnelarealayer"/><g class="pielayer"/><g class="iciclelayer"/><g class="treemaplayer"/><g class="sunburstlayer"/><g class="glimages"/><defs id="topdefs-a7a725"><g class="clips"/><clipPath id="legenda7a725"><rect width="132" height="48" x="0.5" y="0.5"/></clipPath></defs><g class="layer-above"><g class="imagelayer"/><g class="shapelayer"/></g><g class="infolayer"><g class="legend" pointer-events="all" transform="translate(280,348.59999999999997)"><rect class="bg" shape-rendering="crispEdges" width="132.5" height="48.5" x="0.25" y="0.25" style="stroke: rgb(0, 0, 0); stroke-opacity: 1; fill: rgb(255, 255, 255); fill-opacity: 1; stroke-width: 0.5px;"/><g class="scrollbox" transform="" clip-path="url(#legenda7a725)"><g class="groups" transform=""><g class="traces" transform="translate(0.5,15)" style="opacity: 1;"><text class="legendtext" text-anchor="start" x="40" y="4.680000000000001" style="font-family: 'Franklin Gothic'; font-size: 12px; fill: rgb(68, 68, 68); fill-opacity: 1; white-space: pre;">Baseline</text><g class="layers" style="opacity: 1;"><g class="legendfill"/><g class="legendlines"><path class="js-line" d="M5,0h30" style="fill: none; stroke: rgb(0, 0, 0); stroke-opacity: 1; stroke-dasharray: 3px, 3px; stroke-width: 1px;"/></g><g class="legendsymbols"><g class="legendpoints"/></g></g><rect class="legendtoggle" x="0" y="-9.5" width="127" height="19" style="fill: rgb(0, 0, 0); fill-opacity: 0;"/></g><g class="traces" transform="translate(0.5,34)" style="opacity: 1;"><text class="legendtext" text-anchor="start" x="40" y="4.680000000000001" style="font-family: 'Franklin Gothic'; font-size: 12px; fill: rgb(68, 68, 68); fill-opacity: 1; white-space: pre;">AUC = 0.9401</text><g class="layers" style="opacity: 1;"><g class="legendfill"/><g class="legendlines"><path class="js-line" d="M5,0h30" style="fill: none; stroke: rgb(0, 113, 197); stroke-opacity: 1; stroke-width: 3px;"/></g><g class="legendsymbols"><g class="legendpoints"/></g></g><rect class="legendtoggle" x="0" y="-9.5" width="127" height="19" style="fill: rgb(0, 0, 0); fill-opacity: 0;"/></g></g></g><rect class="scrollbar" rx="20" ry="3" width="0" height="0" x="0" y="0" style="fill: rgb(128, 139, 164); fill-opacity: 1;"/></g><g class="g-gtitle"><text class="gtitle" x="450" y="50" text-anchor="middle" dy="0em" style="font-family: 'Franklin Gothic'; font-size: 17px; fill: rgb(68, 68, 68); opacity: 1; font-weight: normal; white-space: pre;">XGBoost ROC and Precision-Recall Curves</text></g><g class="g-xtitle"><text class="xtitle" x="246.5" y="472" text-anchor="middle" style="font-family: 'Franklin Gothic'; font-size: 14px; fill: rgb(68, 68, 68); opacity: 1; font-weight: normal; white-space: pre;">False Positive Rate (1 - Specificity)</text></g><g class="g-x2title"><text class="x2title" x="653.5" y="472" text-anchor="middle" style="font-family: 'Franklin Gothic'; font-size: 14px; fill: rgb(68, 68, 68); opacity: 1; font-weight: normal; white-space: pre;">Recall (Sensitivity)</text></g><g class="g-ytitle"><text class="ytitle" transform="rotate(-90,42,260)" x="42" y="260" text-anchor="middle" style="font-family: 'Franklin Gothic'; font-size: 14px; fill: rgb(68, 68, 68); opacity: 1; font-weight: normal; white-space: pre;">True Positive Rate (Sensitivity)</text></g><g class="g-y2title"><text class="y2title" transform="rotate(-90,456.00000000000006,260)" x="456.00000000000006" y="260" text-anchor="middle" style="font-family: 'Franklin Gothic'; font-size: 14px; fill: rgb(68, 68, 68); opacity: 1; font-weight: normal; white-space: pre;">Precision (PPV)</text></g><g class="annotation" data-index="0" style="opacity: 1;"><g class="annotation-text-g" transform="rotate(0,246.5,78)"><g class="cursor-pointer" transform="translate(110,56)"><rect class="bg" x="0.5" y="0.5" width="273" height="43" style="stroke-width: 1px; stroke: rgb(0, 0, 0); stroke-opacity: 0; fill: rgb(0, 0, 0); fill-opacity: 0;"/><text class="annotation-text" text-anchor="middle" x="137" y="17" style="font-family: 'Franklin Gothic'; font-size: 16px; fill: rgb(68, 68, 68); fill-opacity: 1; white-space: pre;"><tspan class="line" dy="0em" x="137" y="17">Receiver Operating Characteristic</tspan><tspan class="line" dy="1.3em" x="137" y="17">(ROC) Curve</tspan></text></g></g></g><g class="annotation" data-index="1" style="opacity: 1;"><g class="annotation-text-g" transform="rotate(0,653.5,78)"><g class="cursor-pointer" transform="translate(563,56)"><rect class="bg" x="0.5" y="0.5" width="180" height="43" style="stroke-width: 1px; stroke: rgb(0, 0, 0); stroke-opacity: 0; fill: rgb(0, 0, 0); fill-opacity: 0;"/><text class="annotation-text" text-anchor="middle" x="90.5" y="17" style="font-family: 'Franklin Gothic'; font-size: 16px; fill: rgb(68, 68, 68); fill-opacity: 1; white-space: pre;"><tspan class="line" dy="0em" x="90.5" y="17">Precision-Recall Curve</tspan><tspan class="line" dy="1.3em" x="90.5" y="17">AUPRC = 0.937</tspan></text></g></g></g></g></svg>